<svg xmlns="http://www.w3.org/2000/svg" viewBox="0 0 512 512">
  <defs>
    <linearGradient id="bg" x1="0%" y1="0%" x2="100%" y2="100%">
      <stop offset="0%" style="stop-color:#3b82f6;stop-opacity:1" />
      <stop offset="100%" style="stop-color:#1d4ed8;stop-opacity:1" />
    </linearGradient>
  </defs>
  <!-- Background -->
  <rect width="512" height="512" rx="64" fill="url(#bg)"/>
  <!-- Tooth icon -->
  <g transform="translate(128, 80)" fill="white">
    <!-- Tooth shape -->
    <path d="M128 0C80 0 48 32 32 64C16 96 16 128 32 160C48 192 48 256 48 320C48 352 64 352 80 320C96 288 112 288 128 320C144 288 160 288 176 320C192 352 208 352 208 320C208 256 208 192 224 160C240 128 240 96 224 64C208 32 176 0 128 0Z" opacity="0.9"/>
    <!-- Plus sign for medical/stock -->
    <rect x="104" y="140" width="48" height="12" rx="6" fill="#3b82f6"/>
    <rect x="122" y="122" width="12" height="48" rx="6" fill="#3b82f6"/>
  </g>
  <!-- Text DS -->
  <text x="256" y="460" text-anchor="middle" font-family="Arial, sans-serif" font-size="64" font-weight="bold" fill="white" opacity="0.9">DS</text>
</svg>
